<?xml version="1.0" standalone="no"?>
<!DOCTYPE svg PUBLIC "-//W3C//DTD SVG 20010904//EN"
 "http://www.w3.org/TR/2001/REC-SVG-20010904/DTD/svg10.dtd">
<svg version="1.0" xmlns="http://www.w3.org/2000/svg"
 width="894.000000pt" height="894.000000pt" viewBox="0 0 894.000000 894.000000"
 preserveAspectRatio="xMidYMid meet">
<metadata>
Created by potrace 1.11, written by Peter Selinger 2001-2013
</metadata>
<g transform="translate(0.000000,894.000000) scale(0.100000,-0.100000)"
fill="#000000" stroke="none">
<path d="M1123 8162 c-6 -4 -36 -6 -67 -6 l-55 2 1 -37 c1 -73 3 -71 -57 -71
l-55 0 0 -170 0 -169 -50 3 c-28 2 -52 0 -55 -4 -8 -13 -8 -287 0 -299 3 -6 1
-11 -5 -11 -6 0 -8 -4 -5 -10 6 -10 -32 -14 -82 -10 l-22 1 -1 -335 0 -336 42
-1 c24 -1 49 -1 56 0 10 2 13 -21 11 -102 -1 -58 1 -109 4 -114 4 -6 29 -9 57
-8 l50 2 0 -57 0 -58 39 2 c57 3 79 -8 76 -38 -2 -14 -6 -30 -10 -35 -3 -6 -2
-11 2 -11 10 0 9 -102 -1 -119 -8 -12 37 -26 53 -16 6 3 11 2 11 -3 0 -5 12
-7 28 -4 27 4 27 3 27 -52 -1 -61 -2 -60 70 -57 l41 2 -1 -98 c-1 -133 -2
-131 50 -128 57 2 64 -3 63 -45 -1 -71 -2 -69 55 -67 l52 2 3 -109 c2 -70 -1
-112 -8 -116 -6 -4 -30 -4 -54 0 -27 4 -43 2 -44 -4 -1 -6 -3 -209 -4 -451
l-3 -440 -50 0 c-27 1 -52 -2 -55 -6 -3 -4 -5 -155 -5 -336 l0 -328 55 0 55 0
0 -45 c1 -57 10 -72 43 -69 70 5 72 4 72 -56 l0 -55 55 0 55 0 1 -40 c1 -22 3
-44 4 -50 1 -5 3 -14 4 -18 1 -8 104 -7 126 2 7 2 16 2 19 -1 3 -3 49 -5 103
-4 54 1 105 1 113 1 142 -2 322 0 329 4 5 4 12 3 15 -2 3 -5 19 -7 36 -4 16 2
30 0 31 -4 1 -5 2 -128 3 -274 0 -146 5 -270 9 -277 5 -8 16 -9 30 -4 12 4 33
5 46 2 22 -6 25 -12 26 -53 0 -26 3 -50 7 -53 3 -3 78 -6 167 -6 l161 1 0 -55
c0 -37 4 -55 13 -56 6 -1 28 -2 47 -4 19 -1 40 -3 46 -3 8 -1 10 -20 7 -55
l-4 -53 57 1 57 0 1 -55 1 -55 45 -2 c25 0 50 -2 56 -2 6 -1 10 -22 10 -53
l-1 -53 55 -1 55 -1 1 -44 c1 -24 2 -50 3 -56 1 -9 19 -13 56 -13 39 0 55 -4
54 -12 -1 -7 -1 -33 0 -58 l1 -45 55 2 55 2 0 -54 c0 -60 -2 -58 73 -57 38 1
44 -9 37 -57 -5 -39 9 -57 47 -58 70 -1 69 0 68 -46 -2 -62 0 -65 59 -63 l53
2 -1 -56 -1 -55 100 -2 c55 -1 105 -2 111 -2 14 -1 24 -60 13 -67 -5 -3 -4
-15 2 -27 8 -18 18 -22 50 -21 22 1 42 4 46 7 3 4 15 2 25 -4 14 -7 23 -8 30
-1 6 6 19 7 33 2 12 -4 28 -4 35 0 8 5 21 5 31 0 9 -5 18 -7 20 -5 5 4 102 6
166 3 24 -1 45 0 47 3 2 2 48 2 101 -1 55 -3 100 -1 106 4 6 6 9 5 9 -3 0 -10
3 -11 13 -3 8 7 18 7 27 2 25 -15 46 14 44 60 -1 22 -4 43 -7 47 -4 3 -29 5
-57 4 l-50 -1 0 58 0 57 35 0 c19 0 35 -4 35 -9 0 -5 7 -3 15 4 19 15 27 -2
29 -63 1 -45 -3 -43 82 -46 30 -1 30 -1 28 -54 -2 -59 -6 -56 73 -58 l42 -1
-4 -44 c-4 -57 10 -71 67 -67 l45 3 -2 -47 c0 -27 0 -52 2 -58 2 -5 28 -10 58
-9 34 0 55 -4 54 -10 -1 -6 -1 -31 0 -57 l1 -45 165 1 c91 0 165 -2 166 -5 1
-3 2 -25 4 -50 1 -25 3 -48 4 -53 0 -4 13 -6 29 -6 78 4 79 4 77 -56 l-1 -55
46 1 c26 1 51 -1 57 -4 6 -4 10 -27 10 -52 0 -25 3 -48 6 -51 3 -3 128 -6 279
-7 l273 -2 1 -40 c1 -22 2 -47 3 -55 1 -14 74 -16 669 -15 l667 0 2 45 c0 25
2 51 2 58 1 8 19 12 57 12 l55 0 -2 58 c-1 33 1 64 5 70 3 6 3 13 -2 16 -4 2
-6 22 -4 43 l4 39 48 -4 c26 -2 50 0 54 6 3 5 6 56 7 113 l1 105 164 -1 c90 0
165 2 165 5 1 3 3 28 4 55 l1 50 53 2 c29 0 55 3 58 6 7 7 6 207 -1 215 -4 3
-30 5 -59 4 l-52 -1 1 109 c1 71 -3 110 -10 113 -6 2 -30 3 -53 2 -24 -2 -44
0 -44 4 -1 3 -3 49 -4 101 -2 52 -3 100 -4 107 -1 7 -16 12 -38 11 -21 0 -45
0 -54 1 -14 1 -15 37 -16 314 -1 171 -2 322 -2 335 -1 20 -6 22 -55 22 l-54 0
0 51 c-1 28 -3 53 -5 56 -3 2 -53 5 -111 5 -116 1 -109 -4 -108 71 1 32 -2 37
-21 38 -12 0 -87 1 -167 2 l-145 2 0 50 c0 40 -4 51 -18 55 -11 3 -86 5 -168
5 -97 -1 -149 3 -150 10 -1 5 -2 26 -4 45 -1 19 -3 40 -3 46 -1 6 -41 10 -109
10 l-108 -1 -1 55 c0 34 -5 55 -12 56 -7 1 -32 2 -57 3 l-45 1 3 46 c3 55 -18
77 -61 65 -44 -13 -52 -4 -52 55 l0 54 -55 0 c-30 0 -55 3 -56 8 0 4 -2 30 -2
57 l-2 50 -52 -2 c-58 -3 -55 -7 -56 75 0 17 -3 33 -6 33 -3 1 -28 2 -56 3
l-50 1 -1 50 c-1 28 -2 53 -3 57 0 3 -21 5 -46 4 -25 -1 -48 0 -53 3 -4 3 -8
29 -8 56 l0 50 -49 1 c-28 1 -54 2 -58 3 -5 1 -8 11 -7 24 1 12 2 37 1 55 l-1
32 -57 0 -58 0 3 55 c4 60 5 61 85 55 l27 -2 0 115 0 114 -52 -1 -53 -1 -6 43
c-3 24 -2 45 3 48 20 12 -5 21 -57 20 -32 -1 -55 3 -56 9 0 5 -1 32 0 58 l0
49 -55 -4 c-38 -2 -54 1 -55 10 -1 6 -2 30 -3 53 -1 39 -27 72 -40 50 -3 -5
-20 -6 -38 -2 -32 7 -33 8 -32 59 0 57 7 53 -87 54 -25 1 -27 4 -26 48 0 26
-3 51 -6 57 -3 5 -28 9 -55 7 l-50 -2 1 50 c0 57 -8 66 -64 63 -22 -1 -42 1
-44 5 -3 4 -5 30 -6 58 l-2 50 -50 -2 c-55 -2 -59 3 -61 68 l-1 41 -55 5 -55
5 1 53 1 52 -57 0 -57 0 0 38 c-1 81 2 77 -56 77 l-52 0 -1 48 c0 27 -6 52
-12 56 -7 4 -33 7 -57 6 l-45 -2 0 58 c0 58 0 59 -27 58 -16 -1 -42 -1 -58 0
-31 1 -31 1 -29 54 l3 54 -51 2 c-28 1 -54 3 -57 6 -4 2 -6 26 -5 54 l1 51
-54 0 c-29 0 -54 3 -54 8 -1 4 -2 26 -3 49 -1 24 -5 46 -9 49 -3 4 -28 7 -54
8 l-48 1 0 53 c1 57 6 53 -77 54 l-36 0 1 49 c0 27 -3 52 -7 56 -4 4 -28 7
-54 8 l-47 0 -3 57 -3 56 -42 -2 c-65 -3 -74 5 -71 62 l3 49 -51 2 c-28 1 -54
3 -57 6 -4 2 -6 25 -6 52 0 46 -1 48 -30 54 -16 3 -40 2 -52 -3 -26 -8 -25
-10 -27 64 l-1 51 -55 1 -55 1 0 55 1 55 -54 -1 c-42 -1 -55 2 -63 17 -5 11
-6 19 -1 19 9 0 7 54 -3 70 -3 4 -27 7 -55 5 l-50 -3 -1 47 c-1 25 -1 51 0 58
1 9 -14 11 -49 9 -28 -1 -54 2 -57 8 -4 5 -7 30 -7 55 l-1 46 -53 0 c-57 0
-56 -2 -54 88 1 26 -2 27 -46 28 -26 1 -52 1 -58 0 -6 -1 -11 13 -11 31 -1 90
2 85 -55 84 l-53 -1 -1 45 c-1 25 -2 50 -3 55 -1 6 -21 10 -45 9 -62 -2 -70 6
-67 64 l2 48 -220 0 c-140 -1 -222 3 -223 9 -1 6 -2 24 -3 40 -1 17 -3 38 -4
47 -1 14 -11 17 -48 17 -27 1 -55 1 -63 1 -8 0 -43 -1 -77 -3 -35 -1 -63 1
-63 6 0 4 -5 5 -11 1 -18 -11 -170 -10 -177 1 -3 5 -6 30 -7 55 l0 45 -222 3
-223 2 0 54 0 54 -137 -2 c-76 -1 -147 1 -159 5 -11 4 -25 4 -31 1z m1554
-4414 l4 -55 -55 -2 c-51 -1 -56 1 -57 22 -1 12 -2 31 -3 42 -3 40 10 50 60
50 l48 -1 3 -56z m1119 -888 c0 -25 -1 -50 -3 -56 -3 -9 -36 -10 -98 -5 -8 1
-12 67 -6 104 0 4 25 7 54 5 l52 -3 1 -45z m-115 -179 c4 -1 4 -79 0 -102 0
-3 -25 -6 -55 -6 l-53 0 0 57 0 56 51 -2 c28 -1 53 -2 57 -3z m450 -126 c1
-11 0 -37 -1 -58 l-2 -38 46 4 c25 2 51 0 58 -4 7 -5 13 -29 13 -58 l0 -50
-58 0 -58 1 1 31 c4 60 0 75 -19 80 -11 2 -24 0 -30 -6 -8 -8 -11 -8 -11 0 0
6 -9 9 -20 6 -14 -4 -22 1 -29 18 -5 13 -6 29 -3 34 4 6 5 18 3 29 -4 25 8 31
63 31 39 0 46 -3 47 -20z"/>
</g>
</svg>
